<svg id="Capa_1" enable-background="new 0 0 512 512" height="512" viewBox="0 0 512 512" width="512" xmlns="http://www.w3.org/2000/svg"><path d="m355.503 243.496-86.995-86.996c-5.858-5.858-15.356-5.858-21.215 0l-224.914 224.914c-29.834 29.834-29.834 78.377 0 108.21 29.834 29.834 78.376 29.834 108.21 0l224.914-224.914c5.859-5.858 5.859-15.356 0-21.214z" fill="#fe6a16"/><path d="m355.503 243.496-43.498-43.498-289.626 289.627c29.834 29.834 78.376 29.834 108.21 0l224.914-224.915c5.859-5.858 5.859-15.356 0-21.214z" fill="#f92814"/><path d="m129.74 382.264c-5.858-5.858-5.858-15.357 0-21.215l76.642-76.642c5.858-5.858 15.356-5.858 21.215 0s5.858 15.357 0 21.215l-76.642 76.642c-5.859 5.858-15.357 5.858-21.215 0z" fill="#414952"/><path d="m150.955 382.264 76.642-76.642c5.858-5.858 5.858-15.356 0-21.215l-97.856 97.856c5.857 5.859 15.355 5.859 21.214.001z" fill="#23272b"/><path d="m470.779 231.773c1.484-5.231.02-10.855-3.824-14.7l-172.032-172.031c-3.845-3.845-9.469-5.308-14.7-3.824-5.231 1.483-9.25 5.681-10.504 10.973l-25.434 107.319 108.21 108.21 107.313-25.441c5.29-1.256 9.488-5.275 10.971-10.506z" fill="#414952"/><path d="m466.954 217.073-86.012-86.012-82.552 82.552 54.105 54.105 107.313-25.441c5.291-1.255 9.489-5.273 10.971-10.504 1.484-5.231.02-10.855-3.825-14.7z" fill="#23272b"/><path d="m507.602 176.425-172.031-172.031c-5.858-5.858-15.357-5.858-21.215 0l-41.273 41.273 193.246 193.246 41.273-41.273c5.859-5.858 5.859-15.356 0-21.215z" fill="#636978"/><path d="m507.602 176.425-86.012-86.012-51.881 51.881 96.619 96.619 41.273-41.273c5.86-5.858 5.86-15.356.001-21.215z" fill="#414952"/></svg>